<svg xmlns="http://www.w3.org/2000/svg" width="800" height="800" viewBox="0 0 800 800">
  <title>Shraman Capital Mark</title>
  <rect width="800" height="800" fill="#1a5c3a"/>

  <defs>
    <linearGradient id="g-s" x1="0" y1="0" x2="1" y2="1">
      <stop offset="0%" stop-color="white" stop-opacity="0.2"/>
      <stop offset="25%" stop-color="white" stop-opacity="0.6"/>
      <stop offset="55%" stop-color="white" stop-opacity="1"/>
      <stop offset="80%" stop-color="white" stop-opacity="1"/>
      <stop offset="100%" stop-color="white" stop-opacity="0.25"/>
    </linearGradient>

    <linearGradient id="g-c" x1="1" y1="0" x2="0" y2="0.5">
      <stop offset="0%" stop-color="white" stop-opacity="0.2"/>
      <stop offset="25%" stop-color="white" stop-opacity="0.6"/>
      <stop offset="55%" stop-color="white" stop-opacity="1"/>
      <stop offset="100%" stop-color="white" stop-opacity="1"/>
    </linearGradient>
  </defs>

  <g fill="none" stroke-linecap="round" stroke-linejoin="round">

    <!--
      CORRECTED S GLYPH:
      A proper "S" reads top-to-bottom as:
        - Top horizontal goes RIGHT
        - But the top arch opens to the RIGHT (top hooks LEFT, going from top-right down-left)
      
      Wait - let me think about this carefully.
      Standard "S" letter:
        - Top loop: opens to the LOWER-LEFT (the top arch curves from upper-right around to lower-left)
        - Bottom loop: opens to the UPPER-RIGHT (the bottom arch curves from lower-left around to upper-right)
      
      Drawing S top-down with strokes:
        1. Start at top-RIGHT
        2. Go LEFT along top
        3. Curve DOWN at top-LEFT corner
        4. Go DOWN along left side (short — half height)
        5. Curve RIGHT at mid-LEFT
        6. Go RIGHT across the middle
        7. Curve DOWN at mid-RIGHT
        8. Go DOWN along right side (bottom half)
        9. Curve LEFT at bot-RIGHT
        10. Go LEFT along bottom
        End at bot-LEFT
      
      So the 4 corners of a proper S are:
        Corner A: TOP-LEFT     (line goes left → down) — CCW turn
        Corner B: MID-LEFT     (line goes down → right) — CCW turn
        Corner C: MID-RIGHT    (line goes right → down) — CW turn
        Corner D: BOT-RIGHT    (line goes down → left) — CW turn
      
      Path for outermost S line:
        M (right, top)
        L (left+r, top)              top horizontal going LEFT
        A r,r 0 0,0 (left, top+r)    corner A — CCW (left→down)
        L (left, mid-r)              left vertical (top half)
        A r,r 0 0,0 (left+r, mid)    corner B — CCW (down→right)
        L (right-r, mid)             middle horizontal going RIGHT
        A r,r 0 0,1 (right, mid+r)   corner C — CW (right→down)
        L (right, bot-r)             right vertical (bottom half)
        A r,r 0 0,1 (right-r, bot)   corner D — CW (down→left)
        L (left, bot)                bottom horizontal going LEFT
    -->

    <!-- ============ S GLYPH (corrected) ============ -->

    <path stroke="url(#g-s)" stroke-width="3.2" d="M 380,150 L 124,150 A 44,44 0 0,0 80,194  L 80,356  A 44,44 0 0,0 124,400 L 336,400 A 44,44 0 0,1 380,444 L 380,606 A 44,44 0 0,1 336,650 L 80,650"/>
    <path stroke="url(#g-s)" stroke-width="3.2" d="M 366,164 L 134,164 A 40,40 0 0,0 94,204   L 94,360   A 40,40 0 0,0 134,400 L 326,400 A 40,40 0 0,1 366,440 L 366,596 A 40,40 0 0,1 326,636 L 94,636"/>
    <path stroke="url(#g-s)" stroke-width="3.2" d="M 352,178 L 144,178 A 36,36 0 0,0 108,214  L 108,364  A 36,36 0 0,0 144,400 L 316,400 A 36,36 0 0,1 352,436 L 352,586 A 36,36 0 0,1 316,622 L 108,622"/>
    <path stroke="url(#g-s)" stroke-width="3.2" d="M 338,192 L 154,192 A 32,32 0 0,0 122,224  L 122,368  A 32,32 0 0,0 154,400 L 306,400 A 32,32 0 0,1 338,432 L 338,576 A 32,32 0 0,1 306,608 L 122,608"/>
    <path stroke="url(#g-s)" stroke-width="3.2" d="M 324,206 L 164,206 A 28,28 0 0,0 136,234  L 136,372  A 28,28 0 0,0 164,400 L 296,400 A 28,28 0 0,1 324,428 L 324,566 A 28,28 0 0,1 296,594 L 136,594"/>
    <path stroke="url(#g-s)" stroke-width="3.2" d="M 310,220 L 174,220 A 24,24 0 0,0 150,244  L 150,376  A 24,24 0 0,0 174,400 L 286,400 A 24,24 0 0,1 310,424 L 310,556 A 24,24 0 0,1 286,580 L 150,580"/>
    <path stroke="url(#g-s)" stroke-width="3.2" d="M 296,234 L 184,234 A 20,20 0 0,0 164,254  L 164,380  A 20,20 0 0,0 184,400 L 276,400 A 20,20 0 0,1 296,420 L 296,546 A 20,20 0 0,1 276,566 L 164,566"/>
    <path stroke="url(#g-s)" stroke-width="3.2" d="M 282,248 L 194,248 A 16,16 0 0,0 178,264  L 178,384  A 16,16 0 0,0 194,400 L 266,400 A 16,16 0 0,1 282,416 L 282,536 A 16,16 0 0,1 266,552 L 178,552"/>
    <path stroke="url(#g-s)" stroke-width="3.2" d="M 268,262 L 204,262 A 12,12 0 0,0 192,274  L 192,388  A 12,12 0 0,0 204,400 L 256,400 A 12,12 0 0,1 268,412 L 268,526 A 12,12 0 0,1 256,538 L 192,538"/>

    <!-- ============ C GLYPH (open on right) ============ -->

    <path stroke="url(#g-c)" stroke-width="3.2" d="M 720,150 L 464,150 A 44,44 0 0,0 420,194 L 420,606 A 44,44 0 0,0 464,650 L 720,650"/>
    <path stroke="url(#g-c)" stroke-width="3.2" d="M 706,164 L 474,164 A 40,40 0 0,0 434,204 L 434,596 A 40,40 0 0,0 474,636 L 706,636"/>
    <path stroke="url(#g-c)" stroke-width="3.2" d="M 692,178 L 484,178 A 36,36 0 0,0 448,214 L 448,586 A 36,36 0 0,0 484,622 L 692,622"/>
    <path stroke="url(#g-c)" stroke-width="3.2" d="M 678,192 L 494,192 A 32,32 0 0,0 462,224 L 462,576 A 32,32 0 0,0 494,608 L 678,608"/>
    <path stroke="url(#g-c)" stroke-width="3.2" d="M 664,206 L 504,206 A 28,28 0 0,0 476,234 L 476,566 A 28,28 0 0,0 504,594 L 664,594"/>
    <path stroke="url(#g-c)" stroke-width="3.2" d="M 650,220 L 514,220 A 24,24 0 0,0 490,244 L 490,556 A 24,24 0 0,0 514,580 L 650,580"/>
    <path stroke="url(#g-c)" stroke-width="3.2" d="M 636,234 L 524,234 A 20,20 0 0,0 504,254 L 504,546 A 20,20 0 0,0 524,566 L 636,566"/>
    <path stroke="url(#g-c)" stroke-width="3.2" d="M 622,248 L 534,248 A 16,16 0 0,0 518,264 L 518,536 A 16,16 0 0,0 534,552 L 622,552"/>
    <path stroke="url(#g-c)" stroke-width="3.2" d="M 608,262 L 544,262 A 12,12 0 0,0 532,274 L 532,526 A 12,12 0 0,0 544,538 L 608,538"/>

  </g>
</svg>
